<svg xmlns="http://www.w3.org/2000/svg" style="display:none">
  <symbol id="laptop" viewBox="0 0 48 32">
    <rect x="7" y="3" width="34" height="22" rx="2" fill="none" stroke="currentColor" stroke-width="2"/>
    <rect x="11" y="7" width="26" height="14" fill="currentColor" opacity="0.25"/>
    <path d="M2 27h44l-3 3H5z" fill="currentColor"/>
    <path d="M14 11h14M14 15h9" stroke="currentColor" stroke-width="1.6" opacity="0.8"/>
  </symbol>
  <symbol id="tray" viewBox="0 0 48 32">
    <path d="M4 18v8h40v-8l-6-13H10z" fill="none" stroke="currentColor" stroke-width="2"/>
    <path d="M4 18h11l2 4h14l2-4h11" fill="none" stroke="currentColor" stroke-width="2"/>
    <path d="M15 3h18v9H15z" fill="currentColor" opacity="0.3"/>
    <path d="M18 6h12M18 9h8" stroke="currentColor" stroke-width="1.4"/>
  </symbol>
  <symbol id="pinboard" viewBox="0 0 48 32">
    <rect x="3" y="3" width="42" height="26" rx="1" fill="none" stroke="currentColor" stroke-width="2"/>
    <rect x="8" y="8" width="12" height="9" fill="currentColor" opacity="0.3"/>
    <rect x="26" y="7" width="13" height="8" fill="currentColor" opacity="0.3"/>
    <rect x="14" y="20" width="14" height="6" fill="currentColor" opacity="0.3"/>
    <circle cx="14" cy="8" r="1.6" fill="currentColor"/>
    <circle cx="32" cy="7" r="1.6" fill="currentColor"/>
  </symbol>
  <symbol id="folder" viewBox="0 0 48 32">
    <path d="M3 6h15l3 4h24v19H3z" fill="none" stroke="currentColor" stroke-width="2"/>
    <path d="M3 14h42" stroke="currentColor" stroke-width="1.4" opacity="0.6"/>
  </symbol>
  <symbol id="drawer" viewBox="0 0 48 32">
    <rect x="4" y="6" width="40" height="20" rx="1" fill="none" stroke="currentColor" stroke-width="2"/>
    <path d="M4 16h40" stroke="currentColor" stroke-width="1.6"/>
    <circle cx="24" cy="11" r="1.8" fill="currentColor"/>
    <circle cx="24" cy="21" r="1.8" fill="currentColor"/>
  </symbol>
  <symbol id="torch" viewBox="0 0 48 32">
    <rect x="6" y="11" width="20" height="10" rx="2" fill="none" stroke="currentColor" stroke-width="2"/>
    <path d="M26 9l8 3v8l-8 3z" fill="currentColor" opacity="0.5"/>
    <path d="M37 12l6-3M37 16h7M37 20l6 3" stroke="currentColor" stroke-width="2" stroke-linecap="round"/>
  </symbol>
  <symbol id="lock" viewBox="0 0 32 32">
    <rect x="6" y="14" width="20" height="14" rx="2" fill="none" stroke="currentColor" stroke-width="2"/>
    <path d="M11 14v-4a5 5 0 0 1 10 0v4" fill="none" stroke="currentColor" stroke-width="2"/>
  </symbol>
  <symbol id="check" viewBox="0 0 32 32">
    <path d="M6 17l7 7L26 9" fill="none" stroke="currentColor" stroke-width="3" stroke-linecap="round" stroke-linejoin="round"/>
  </symbol>
</svg>
